<svg xmlns="http://www.w3.org/2000/svg" viewBox="0 0 70 70">
  <path d="M26.3848 1.0725c-1.8546.4728-3.652 1.0904-5.375 1.8451-.2058 2.0833-.5276 4.8075-.8775 6.338-2.0422 8.9282-9.6639 15.3964-18.7588 16.0791-.4879 1.6993-.8503 3.4515-1.0768 5.246 11.9855-.2344 22.2243-8.4814 24.8972-20.1675.7051-3.0829 1.1921-9.3405 1.1921-9.3405m18.6 9.3405c2.6729 11.6861 12.9117 19.9331 24.8973 20.1675-.2264-1.7945-.5889-3.5467-1.0768-5.246-9.0949-.6827-16.7166-7.1509-18.7588-16.0791-.3499-1.5305-.6717-4.2547-.8774-6.338-1.723-.7547-3.5205-1.3723-5.375-1.8451 0 0 .4869 6.2576 1.192 9.3405m-12.084 29.9813-1.0064 29.6057c-3.648-.3282-7.137-1.2068-10.3765-2.5669l2.7567-27.0388h8.6262Zm-13.9884 25.808c-1.8578-.9797-3.6172-2.0945-5.2613-3.3657-.8795-7.2265-5.4395-13.3336-11.7488-16.375-.6671-1.944-1.178-3.961-1.4966-6.0424 10.6989 3.2587 18.8497 13.4288 18.5067 25.7831m14.3209-35.5827 1.0406-30.6196c-2.0288.0464-4.0156.259-5.9451.6357l-3.0571 29.9839h7.9616Zm4.0434 9.7747 1.0064 29.6057c3.648-.3282 7.137-1.2068 10.3766-2.5669l-2.7568-27.0388h-8.6262Zm7.6294-9.7747L41.849.6357c-1.9294-.3767-3.9166-.5894-5.9451-.6357l1.0407 30.6196h7.9615Zm6.3591 35.5827c1.8578-.9797 3.6171-2.0945 5.2613-3.3657.8795-7.2265 5.4394-13.3336 11.7488-16.375.667-1.944 1.178-3.961 1.4966-6.0424-10.6989 3.2587-18.8497 13.4288-18.5067 25.7831m18.9123-31.135c0 .8588-.0417 1.7074-.1022 2.5508H.1025C.0417 36.7748 0 35.9262 0 35.0674s.0417-1.7075.1025-2.5509h69.9728c.0605.8434.1022 1.692.1022 2.5509"
    fill="#0096dc"/>
</svg>
