<svg width="500" height="442.1" viewBox="-0 -0 500 442.1" xmlns="http://www.w3.org/2000/svg" xmlns:xlink="http://www.w3.org/1999/xlink" fill="#585656" overflow="hidden"><style>
.MsftOfcThm_MainLight1_Fill_v2 {
 fill:#FFFFFF; 
}
.MsftOfcThm_Accent2_Stroke_v2 {
 stroke:#C0504D; 
}
</style>
<g id="change1_1"><path d="M500 320.362 500 38.3984C500 17.1916 482.809 9.32414e-05 461.602-6.47546e-07 461.602-6.48195e-07 461.602-6.48004e-07 461.602-6.46973e-07L38.3984 0C17.1917-0.000104934 0.000104287 17.1913-6.46973e-07 38.398L0 320.362C-0.00011598 341.569 17.1913 358.761 38.3981 358.761L197.611 358.761 197.611 380.981C197.61 398.095 183.737 411.967 166.623 411.967L131.948 411.967C115.309 411.967 101.82 425.456 101.82 442.095L398.184 442.095C398.184 425.456 384.695 411.967 368.056 411.967L333.377 411.967C316.263 411.967 302.39 398.095 302.389 380.981L302.389 358.761 461.602 358.761C482.808 358.761 500 341.57 500 320.363ZM23.4375 306.191 23.4375 40.0703C23.4377 31.1567 30.6638 23.9311 39.5774 23.9313 39.5776 23.9313 39.5779 23.9313 39.5781 23.9313L460.422 23.9313C469.335 23.9306 476.562 31.156 476.562 40.0696 476.562 40.0699 476.562 40.0701 476.562 40.0703L476.562 306.191C476.562 315.104 469.336 322.33 460.422 322.33 460.422 322.33 460.422 322.33 460.422 322.33L39.5781 322.33C30.6645 322.33 23.4381 315.105 23.4375 306.191 23.4375 306.191 23.4375 306.191 23.4375 306.191Z" class="MsftOfcThm_MainLight1_Fill_v2 MsftOfcThm_Accent2_Stroke_v2" stroke="#C0504D" stroke-width="8.88889" fill="#FFFFFF"/></g></svg>