<svg viewBox="0 0 96 96" xmlns="http://www.w3.org/2000/svg" xmlns:xlink="http://www.w3.org/1999/xlink" id="Icons_Shuffle_M" overflow="hidden"><g id="Icons"><path d="M73.729 54.675 85.037 65.983C85.0409 65.9869 85.0408 65.9933 85.0369 65.9971 85.035 65.9989 85.0326 66 85.03 66L65.519 66C62.2506 66.0003 59.1161 64.7021 56.805 62.391L46.705 52.291 45.291 53.705 55.391 63.805C58.0771 66.4911 61.7203 68.0001 65.519 68L85.094 68C85.0995 68.0001 85.1039 68.0046 85.1039 68.0101 85.1038 68.0127 85.1028 68.0152 85.101 68.017L73.293 79.825 74.707 81.239 88.914 67.032 75.143 53.261Z" stroke="#C21C1D" fill="#C21C1D"/><path d="M65.519 30 85.094 30C85.0995 30.0001 85.1039 30.0046 85.1039 30.0101 85.1038 30.0127 85.1028 30.0152 85.101 30.017L73.293 41.825 74.707 43.239 88.914 29.032 75.143 15.261 73.729 16.675 85.037 27.983C85.0409 27.9869 85.0408 27.9933 85.0369 27.9971 85.035 27.9989 85.0326 28 85.03 28L65.519 28C61.7175 27.991 58.0705 29.5034 55.391 32.2L22.191 65.4C19.8797 67.7065 16.7473 69.0013 13.482 69L8 69 8 71 13.481 71C17.2818 71.0104 20.9287 69.4998 23.609 66.805L56.809 33.605C59.1198 31.2964 62.2526 29.9997 65.519 30Z" stroke="#C21C1D" fill="#C21C1D"/><path d="M22.2 30.609 35.3 43.709 36.714 42.295 23.614 29.195C20.9325 26.499 17.2835 24.9883 13.481 25L8 25 8 27 13.481 27C16.7528 26.9896 19.8927 28.2893 22.2 30.609Z" stroke="#C21C1D" fill="#C21C1D"/></g></svg>