<svg width="1237.2" height="1236.3" viewBox="0 1 1237.2 1236.3" xmlns="http://www.w3.org/2000/svg" xmlns:xlink="http://www.w3.org/1999/xlink" fill="none" overflow="hidden"><style>
.MsftOfcThm_MainLight1_Fill_v2 {
 fill:#FFFFFF; 
}
.MsftOfcThm_Accent2_Stroke_v2 {
 stroke:#C0504D; 
}
</style>
<g id="change1_1"><path d="M1202.44 822.827C1224.72 758.649 1237.2 690.906 1237.2 619.598 1237.2 548.29 1224.72 479.655 1202.44 416.369 1201.55 414.587 1201.55 412.804 1200.65 411.021 1115.08 172.138 886.006 0.998047 618.6 0.998047 351.194 0.998047 122.116 172.138 36.5455 410.13 35.6542 411.912 34.7628 413.695 34.7628 415.478 12.479 479.655 0 548.29 0 619.598 0 690.906 12.479 759.541 34.7628 822.827 35.6542 824.61 35.6542 826.392 36.5455 828.175 122.116 1067.06 351.194 1237.31 618.6 1237.31 886.006 1237.31 1115.08 1066.17 1200.65 828.175 1201.55 826.392 1201.55 824.61 1202.44 822.827ZM618.6 1149.06C595.425 1149.06 557.096 1106.28 525.008 1010.9 509.855 964.552 497.376 911.962 488.462 854.916L747.846 854.916C738.933 911.962 726.454 965.444 711.301 1010.9 680.103 1106.28 641.775 1149.06 618.6 1149.06ZM477.766 766.672C473.309 719.43 471.526 670.405 471.526 619.598 471.526 568.791 474.201 519.766 477.766 472.525L758.543 472.525C762.999 519.766 764.782 568.791 764.782 619.598 764.782 670.405 762.108 719.43 758.543 766.672L477.766 766.672ZM88.2441 619.598C88.2441 568.791 95.3749 518.875 108.745 472.525L388.63 472.525C384.174 520.658 382.391 570.574 382.391 619.598 382.391 668.623 384.174 718.538 388.63 766.672L109.637 766.672C96.2663 719.43 88.2441 670.405 88.2441 619.598ZM618.6 89.2421C641.775 89.2421 680.103 132.027 712.192 227.402 727.345 273.753 739.824 326.342 748.738 383.389L488.462 383.389C497.376 325.451 509.855 272.861 525.008 227.402 557.096 132.027 594.533 89.2421 618.6 89.2421ZM847.678 472.525 1127.56 472.525C1140.93 518.875 1148.06 568.791 1148.06 619.598 1148.06 670.405 1140.93 720.321 1127.56 766.672L847.678 766.672C852.135 718.538 853.918 668.623 853.918 619.598 853.918 569.682 852.135 520.658 847.678 472.525ZM1092.8 383.389 837.873 383.389C821.829 274.644 795.088 177.486 756.76 107.961 903.833 148.072 1025.95 249.686 1092.8 383.389ZM479.549 107.961C441.22 177.486 414.48 274.644 398.435 383.389L144.399 383.389C211.251 249.686 332.475 148.072 479.549 107.961ZM144.399 854.916 399.327 854.916C415.371 963.661 442.112 1060.82 480.44 1130.34 332.475 1091.12 211.251 989.51 144.399 854.916ZM756.76 1131.24C795.088 1061.71 821.829 964.552 837.873 855.807L1092.8 855.807C1025.95 989.51 903.833 1091.12 756.76 1131.24Z" class="MsftOfcThm_MainLight1_Fill_v2 MsftOfcThm_Accent2_Stroke_v2" stroke="#C0504D" stroke-width="24.9899" fill="#FFFFFF"/></g></svg>