<svg viewBox="0 0 336.4 82.1" xmlns="http://www.w3.org/2000/svg" xmlns:xlink="http://www.w3.org/1999/xlink" id="Vrstva_1" xml:space="preserve" overflow="hidden"><path d="M45.8 27.8C43.9 26.9 41.7 26.5 39.1 26.5L26.5 26.5 26.5 55.7 33.2 55.7 33.2 47.7 39.1 47.7C41.7 47.7 43.9 47.3 45.8 46.4 47.7 45.6 49.2 44.3 50.2 42.7 51.2 41.1 51.7 39.2 51.7 37.1 51.7 34.9 51.2 33.1 50.2 31.5 49.2 29.8 47.7 28.6 45.8 27.8M43.4 40.8C42.3 41.7 40.8 42.1 38.8 42.1L33.3 42.1 33.3 32 38.8 32C40.8 32 42.4 32.4 43.4 33.3 44.5 34.2 45 35.4 45 37.1 44.9 38.7 44.4 39.9 43.4 40.8"/><path d="M78.5 42.6C79.5 41 80.1 39.2 80.1 37 80.1 34.8 79.6 33 78.6 31.4 77.6 29.8 76.1 28.6 74.2 27.7 72.3 26.8 70.1 26.4 67.5 26.4L54.8 26.4 54.8 55.6 61.5 55.6 61.5 47.5 67.4 47.5 67.7 47.5 73.3 55.6 80.5 55.6 74 46.2C76 45.4 77.5 44.2 78.5 42.6M71.7 40.8C70.6 41.7 69.1 42.1 67.1 42.1L61.6 42.1 61.6 32 67.1 32C69.1 32 70.7 32.4 71.7 33.3 72.8 34.2 73.3 35.4 73.3 37.1 73.3 38.7 72.7 39.9 71.7 40.8"/><path d="M112.2 33.3C110.8 31 108.9 29.2 106.5 27.9 104.1 26.6 101.4 25.9 98.3 25.9 95.3 25.9 92.5 26.6 90.1 27.9 87.7 29.2 85.8 31 84.4 33.3 83 35.6 82.3 38.2 82.3 41 82.3 43.9 83 46.4 84.4 48.7 85.8 51 87.7 52.8 90.1 54.1 92.5 55.4 95.3 56.1 98.3 56.1 101.3 56.1 104 55.4 106.5 54.1 108.9 52.8 110.8 51 112.2 48.7 113.6 46.4 114.3 43.8 114.3 41 114.2 38.2 113.5 35.6 112.2 33.3M106.2 45.9C105.4 47.3 104.3 48.4 102.9 49.2 101.5 50 100 50.4 98.2 50.4 96.4 50.4 95 50 93.6 49.2 92.2 48.4 91.1 47.3 90.3 45.9 89.5 44.5 89.1 42.9 89.1 41.1 89.1 39.3 89.5 37.7 90.3 36.3 91.1 34.9 92.2 33.8 93.6 33 95 32.2 96.5 31.8 98.3 31.8 100.1 31.8 101.6 32.2 103 33 104.4 33.8 105.5 34.9 106.3 36.3 107.1 37.7 107.5 39.3 107.5 41.1 107.4 42.8 107 44.5 106.2 45.9"/><path d="M158.8 32.9C160.2 32.1 161.8 31.7 163.6 31.7 166.5 31.7 169 32.8 170.9 35.1L175.2 31.1C173.8 29.4 172.1 28.2 170.1 27.3 168.1 26.4 165.8 26 163.2 26 160.2 26 157.5 26.6 155.1 27.9 152.7 29.2 150.8 31 149.4 33.3 148 35.6 147.3 38.2 147.3 41.1 147.3 44 148 46.6 149.4 48.9 150.8 51.2 152.7 53 155.1 54.3 157.5 55.6 160.2 56.2 163.2 56.2 165.7 56.2 168 55.8 170.1 54.9 172.2 54 173.9 52.7 175.3 51L171 47C169 49.3 166.6 50.5 163.7 50.5 161.9 50.5 160.3 50.1 158.9 49.3 157.5 48.5 156.4 47.4 155.6 46 154.8 44.6 154.4 43 154.4 41.2 154.4 39.4 154.8 37.8 155.6 36.4 156.2 34.8 157.4 33.7 158.8 32.9"/><path d="M200.2 27.9C197.8 26.6 195.1 25.9 192 25.9 189 25.9 186.2 26.6 183.8 27.9 181.4 29.2 179.5 31 178.1 33.3 176.7 35.6 176 38.2 176 41 176 43.9 176.7 46.4 178.1 48.7 179.5 51 181.4 52.8 183.8 54.1 186.2 55.4 189 56.1 192 56.1 195 56.1 197.7 55.4 200.2 54.1 202.6 52.8 204.5 51 205.9 48.7 207.3 46.4 208 43.8 208 41 208 38.1 207.3 35.6 205.9 33.3 204.5 31 202.6 29.2 200.2 27.9M200 45.9C199.2 47.3 198.1 48.4 196.7 49.2 195.3 50 193.8 50.4 192 50.4 190.3 50.4 188.7 50 187.3 49.2 185.9 48.4 184.8 47.3 184 45.9 183.2 44.5 182.8 42.9 182.8 41.1 182.8 39.3 183.2 37.7 184 36.3 184.8 34.9 185.9 33.8 187.3 33 188.7 32.2 190.2 31.8 192 31.8 193.7 31.8 195.3 32.2 196.7 33 198.1 33.8 199.2 34.9 200 36.3 200.8 37.7 201.2 39.3 201.2 41.1 201.1 42.8 200.8 44.5 200 45.9"/><path d="M231.5 44.2 217 26.5 211.4 26.5 211.4 55.6 218.1 55.6 218.1 37.9 232.6 55.6 238.2 55.6 238.2 26.5 231.5 26.5Z"/><path d="M265.8 27.9C263.4 26.6 260.7 25.9 257.6 25.9 254.6 25.9 251.8 26.6 249.4 27.9 247 29.2 245.1 31 243.7 33.3 242.3 35.6 241.6 38.2 241.6 41 241.6 43.9 242.3 46.4 243.7 48.7 245.1 51 247 52.8 249.4 54.1 251.8 55.4 254.6 56.1 257.6 56.1 260.6 56.1 263.3 55.4 265.8 54.1 268.2 52.8 270.1 51 271.5 48.7 272.9 46.4 273.6 43.8 273.6 41 273.6 38.1 272.9 35.6 271.5 33.3 270.2 31 268.3 29.2 265.8 27.9M265.6 45.9C264.8 47.3 263.7 48.4 262.3 49.2 260.9 50 259.4 50.4 257.6 50.4 255.9 50.4 254.3 50 252.9 49.2 251.5 48.4 250.4 47.3 249.6 45.9 248.8 44.5 248.4 42.9 248.4 41.1 248.4 39.3 248.8 37.7 249.6 36.3 250.4 34.9 251.5 33.8 252.9 33 254.3 32.2 255.8 31.8 257.6 31.8 259.3 31.8 260.9 32.2 262.3 33 263.7 33.8 264.8 34.9 265.6 36.3 266.4 37.7 266.8 39.3 266.8 41.1 266.8 42.8 266.4 44.5 265.6 45.9"/><path d="M309.9 26.5 304.3 26.5 293.6 44.6 282.7 26.5 277.1 26.5 277.1 55.6 283.4 55.6 283.4 38.5 292 52.5 295 52.5 303.6 38.1 303.6 55.6 310 55.6Z"/><g><path d="M118 56.1 123.9 56.1 123.9 18.2 118 17.1Z" fill="#C71618"/><path d="M128.2 56.1 134.2 56.1 134.2 20 128.2 19Z" fill="#C71618"/><path d="M138.5 20.8 138.5 56.1 144.4 56.1 144.4 21.8Z" fill="#C71618"/></g></svg>