<svg width="217.2" height="432.5" viewBox="147.4 39.7 217.2 432.5" xmlns="http://www.w3.org/2000/svg" xmlns:xlink="http://www.w3.org/1999/xlink" overflow="hidden"><style>
.MsftOfcThm_MainLight1_Fill_v2 {
 fill:#FFFFFF; 
}
.MsftOfcThm_Accent2_Stroke_v2 {
 stroke:#C0504D; 
}
</style>
<g id="change1_1" fill="#585656"><path d="M256 419.504C247.637 419.504 240.836 426.305 240.836 434.668 240.836 443.027 247.637 449.824 256 449.824 264.359 449.824 271.164 443.027 271.164 434.668 271.164 426.305 264.359 419.504 256 419.504" class="MsftOfcThm_MainLight1_Fill_v2 MsftOfcThm_Accent2_Stroke_v2" stroke="#C0504D" stroke-width="8.76768" fill="#FFFFFF"/><path d="M351.766 393.012C351.766 395.02 350.117 396.676 348.098 396.676L163.898 396.676C161.887 396.676 160.234 395.02 160.234 393.012L160.234 118.996C160.234 116.98 161.887 115.328 163.898 115.328L348.098 115.328C350.117 115.328 351.766 116.98 351.766 118.996ZM256 457.977C243.148 457.977 232.688 447.516 232.688 434.664 232.688 421.812 243.148 411.355 256 411.355 268.855 411.355 279.312 421.812 279.312 434.664 279.312 447.516 268.855 457.977 256 457.977M230.34 69.8945C230.34 67.875 231.992 66.2266 234.004 66.2266L277.992 66.2266C280.008 66.2266 281.66 67.875 281.66 69.8945L281.66 74.7812C281.66 76.7969 280.008 78.4453 277.992 78.4453L234.004 78.4453C231.992 78.4453 230.34 76.7969 230.34 74.7812ZM331.605 39.7266 180.395 39.7266C162.25 39.7266 147.406 54.5742 147.406 72.7188L147.406 439.281C147.406 457.434 162.25 472.273 180.395 472.273L331.605 472.273C349.754 472.273 364.594 457.434 364.594 439.281L364.594 72.7188C364.594 54.5742 349.754 39.7266 331.605 39.7266" class="MsftOfcThm_MainLight1_Fill_v2 MsftOfcThm_Accent2_Stroke_v2" stroke="#C0504D" stroke-width="8.76768" fill="#FFFFFF"/></g></svg>